 http://www.imdb.com/title/tt0319061

Source: Big.Fish.2003.720p.BluRay.x264-iHD

Subs: Croatian, Danish, Dutch, English, Finnish, Hungarian, Icelandic, Italian, Norwegian, Polish, Romanian, Servian and Swedish.

Sample and Screens included.

General
Complete name                    : Big Fish-720p MP4 AAC x264 BRRip 2003-CC.mp4
Format                           : MPEG-4
Format profile                   : Base Media
Codec ID                         : isom
File size                        : 2.30 GiB
Duration                         : 2h 5mn
Overall bit rate                 : 2 635 Kbps
Encoded date                     : UTC 2012-08-02 12:04:01

Video
ID                               : 1
Format                           : AVC
Format/Info                      : Advanced Video Codec
Format profile                   : High@L3.1
Format settings, CABAC           : Yes
Format settings, ReFrames        : 5 frames
Codec ID                         : avc1
Codec ID/Info                    : Advanced Video Coding
Duration                         : 2h 5mn
Bit rate mode                    : Variable
Bit rate                         : 2 245 Kbps
Nominal bit rate                 : 2 282 Kbps
Maximum bit rate                 : 17.0 Mbps
Width                            : 1 280 pixels
Height                           : 688 pixels
Display aspect ratio             : 1.860
Frame rate mode                  : Variable
Frame rate                       : 23.976 fps
Minimum frame rate               : 15.932 fps
Maximum frame rate               : 24.390 fps
Resolution                       : 24 bits
Colorimetry                      : 4:2:0
Scan type                        : Progressive
Bits/(Pixel*Frame)               : 0.106
Stream size                      : 1.96 GiB (85%)
Writing library                  : x264 core 112

Audio
ID                               : 2
Format                           : AAC
Format/Info                      : Advanced Audio Codec
Format version                   : Version 4
Format profile                   : LC
Format settings, SBR             : No
Codec ID                         : 40
Duration                         : 2h 5mn
Bit rate mode                    : Variable
Bit rate                         : 384 Kbps
Maximum bit rate                 : 548 Kbps
Channel(s)                       : 6 channels
Channel positions                : Front: L C R, Rear: L R, LFE
Sampling rate                    : 48.0 KHz
Resolution                       : 16 bits
Stream size                      : 344 MiB (15%)
Language                         : English

Enjoy..

Requested by varuneric.